<?xml version="1.0" encoding="UTF-8"?>
<svg width="60px" height="60px" viewBox="0 0 60 60" version="1.1" xmlns="http://www.w3.org/2000/svg" xmlns:xlink="http://www.w3.org/1999/xlink">
    <title>9E154A1A-6306-47D6-97A0-DB2B1E14CC52</title>
    <g id="Design-System" stroke="none" stroke-width="1" fill="none" fill-rule="evenodd">
        <g id="DS_Cross_01.07-Icone" transform="translate(-590.000000, -2302.000000)">
            <g id="illustrazioni/BW/mostre" transform="translate(590.000000, 2302.000000)">
                <g id="Group" transform="translate(3.000000, 4.000000)" fill="#000000" fill-rule="nonzero">
                    <path d="M50,35 C52.209139,35 54,36.790861 54,39 C54,40.2626308 53.4149829,41.3886235 52.5012193,42.1217077 L52.5,52 C52.5,52.5128358 52.1139598,52.9355072 51.6166211,52.9932723 L51.5,53 L48.5,53 C47.9871642,53 47.5644928,52.6139598 47.5067277,52.1166211 L47.5,52 L47.4994163,46.5677811 C45.4963063,48.3684689 42.1880995,49.5 38.5,49.5 C34.8119005,49.5 31.5036937,48.3684689 29.5005837,46.5677811 L29.5,52 C29.5,52.5128358 29.1139598,52.9355072 28.6166211,52.9932723 L28.5,53 L25.5,53 C24.9871642,53 24.5644928,52.6139598 24.5067277,52.1166211 L24.5,52 L24.5004377,46.5668628 C22.4974309,48.3680842 19.1887264,49.5 15.5,49.5 C11.8125274,49.5 8.50481839,48.3688535 6.50160526,46.5686993 L6.5,52 C6.5,52.5128358 6.11395981,52.9355072 5.61662113,52.9932723 L5.5,53 L2.5,53 C1.98716416,53 1.56449284,52.6139598 1.50672773,52.1166211 L1.5,52 L1.49979019,42.1225173 C0.585447953,41.3894527 0,40.2630957 0,39 C0,36.790861 1.790861,35 4,35 C6.209139,35 8,36.790861 8,39 C8,40.2626308 7.41498292,41.3886235 6.50121926,42.1217077 L6.501,42.538 L6.50472611,42.6572092 C6.65873696,45.2194867 10.5584241,47.5 15.5,47.5 C20.4415759,47.5 24.341263,45.2194867 24.4952739,42.6572092 L24.5,42.5 L24.4997902,42.1225173 C23.585448,41.3894527 23,40.2630957 23,39 C23,36.790861 24.790861,35 27,35 C29.209139,35 31,36.790861 31,39 C31,40.2626308 30.4149829,41.3886235 29.5012193,42.1217077 L29.5,42.5 C29.5,45.1254547 33.4575756,47.5 38.5,47.5 C43.4415759,47.5 47.341263,45.2194867 47.4952739,42.6572092 L47.499,42.53 L47.4997902,42.1225173 C46.585448,41.3894527 46,40.2630957 46,39 C46,36.790861 47.790861,35 50,35 Z M27.5,43 L26.5,43 L26.5,51 L27.5,51 L27.5,43 Z M4.5,43 L3.5,43 L3.5,51 L4.5,51 L4.5,43 Z M50.5,43 L49.5,43 L49.5,51 L50.5,51 L50.5,43 Z M27,37 C25.8954305,37 25,37.8954305 25,39 C25,40.1045695 25.8954305,41 27,41 C28.1045695,41 29,40.1045695 29,39 C29,37.8954305 28.1045695,37 27,37 Z M4,37 C2.8954305,37 2,37.8954305 2,39 C2,40.1045695 2.8954305,41 4,41 C5.1045695,41 6,40.1045695 6,39 C6,37.8954305 5.1045695,37 4,37 Z M50,37 C48.8954305,37 48,37.8954305 48,39 C48,40.1045695 48.8954305,41 50,41 C51.1045695,41 52,40.1045695 52,39 C52,37.8954305 51.1045695,37 50,37 Z M50,0 C50.0064615,0 50.0129086,6.12825798e-05 50.0193409,0.000183298222 C50.042681,0.000634893312 50.0659949,0.00189498016 50.0892501,0.00396640833 C50.1096949,0.0057479633 50.1294204,0.00810097727 50.1489612,0.0110193427 C50.165949,0.0136280806 50.1833753,0.0167021706 50.2007258,0.020240071 C50.2227461,0.0246397952 50.2444365,0.0298336259 50.2658396,0.0357209664 C50.2814633,0.0400977346 50.2968513,0.0447287157 50.3121425,0.0497380859 C50.3317977,0.0561224864 50.3515792,0.0633157362 50.3710585,0.0711039637 C50.3887956,0.0781964242 50.4060985,0.0856790475 50.4232215,0.0936733617 C50.4438914,0.103376643 50.4642939,0.11379392 50.484277,0.12487577 C50.4963944,0.131498828 50.5086131,0.138606922 50.5207088,0.145995454 C50.546275,0.1617187 50.5711307,0.178490093 50.5951593,0.196313506 C50.602603,0.201753444 50.6098424,0.207284482 50.6170223,0.212927691 C50.6801818,0.262551711 50.7374483,0.319818245 50.787214,0.383249919 L50.7071068,0.292893219 C50.7425008,0.328287271 50.774687,0.365674419 50.8036654,0.404693385 C50.8215099,0.428869307 50.8382813,0.453725048 50.8539326,0.479339815 C50.8613931,0.491386894 50.8685012,0.503605559 50.8753288,0.515937903 C50.8862061,0.535706055 50.8966234,0.556108604 50.9063462,0.576900852 C50.914321,0.593901505 50.9218036,0.611204351 50.9287745,0.628663976 C50.9366843,0.648420797 50.9438775,0.668202324 50.9504533,0.688263589 C50.9552713,0.703148659 50.9599023,0.718536724 50.9641549,0.734007034 C50.9701664,0.755563524 50.9753602,0.777253921 50.9798348,0.799205901 C50.9832978,0.816624737 50.9863719,0.83405099 50.9889822,0.851533135 C50.9962388,0.899637905 51,0.949379716 51,1 L50.9962979,0.913769205 C50.9978436,0.931734513 50.9989053,0.949733631 50.9994829,0.967745384 L51,1 L51,32 C51,32.5522847 50.5522847,33 50,33 L50,33 L4,33 C3.44771525,33 3,32.5522847 3,32 L3,32 L3,1 C3,0.993593767 3.00006024,0.987201603 3.00018018,0.980824045 C3.00059932,0.95798023 3.0018656,0.934334913 3.00396641,0.910749934 C3.00576612,0.890152961 3.00811223,0.870504215 3.01101934,0.851038784 C3.01362808,0.83405099 3.01670217,0.816624737 3.02024007,0.799274239 C3.0246398,0.777253921 3.02983363,0.755563524 3.03572097,0.734160388 C3.04009773,0.718536724 3.04472872,0.703148659 3.04973809,0.687857476 C3.05612249,0.668202324 3.06331574,0.648420797 3.07110396,0.628941476 C3.07819642,0.611204351 3.08567905,0.593901505 3.09367336,0.576778453 C3.10337664,0.556108604 3.11379392,0.535706055 3.12487577,0.515723049 C3.13149883,0.503605559 3.13860692,0.491386894 3.14599545,0.479291247 C3.1617187,0.453725048 3.17849009,0.428869307 3.19631351,0.404840697 C3.22531295,0.365674419 3.25749917,0.328287271 3.29289322,0.292893219 L3.21278596,0.383249919 C3.26255171,0.319818245 3.31981825,0.262551711 3.38324992,0.212785965 C3.39015759,0.207284482 3.39739696,0.201753444 3.40469339,0.196334578 C3.42886931,0.178490093 3.45372505,0.1617187 3.47933981,0.146067433 C3.49138689,0.138606922 3.50360556,0.131498828 3.5159379,0.124671174 C3.53570605,0.11379392 3.5561086,0.103376643 3.57690085,0.0936537803 C3.5939015,0.0856790475 3.61120435,0.0781964242 3.62866398,0.0712254916 C3.6484208,0.0633157362 3.66820232,0.0561224864 3.68826359,0.0495466818 C3.70314866,0.0447287157 3.71853672,0.0400977346 3.73400703,0.0358451423 C3.75556352,0.0298336259 3.77725392,0.0246397952 3.7992059,0.0201651536 C3.81662474,0.0167021706 3.83405099,0.0136280806 3.85153313,0.0110178009 C3.89963791,0.00376118706 3.94937972,0 4,0 L3.91074993,0.00396640833 C3.93433491,0.00186560354 3.95798023,0.000599315847 3.98163795,0.000167545257 L4,0 Z M47.4682464,29.8838236 C47.3285531,29.9579865 47.169183,30 47,30 L47,30 L7,30 C6.83081704,30 6.67144687,29.9579865 6.53175362,29.8838236 L5.414,31 L48.585,31 Z M49,3.414 L48,4.414 L48,27.585 L49,28.585 L49,3.414 Z M5,3.415 L5,28.584 L6,27.584 L6,4.415 L5,3.415 Z M46,5 L8,5 L8,28 L46,28 L46,5 Z M20,6 C23.3028003,6 26.2138593,8.0193369 27.4184382,11.0000686 L43,11 C43.5128358,11 43.9355072,11.3860402 43.9932723,11.8833789 L44,12 L44,22 C44,22.5128358 43.6139598,22.9355072 43.1166211,22.9932723 L43,23 L28.588,23 L29.4297128,24.5143571 C29.7814932,25.1475617 29.364106,25.9184703 28.6677529,25.9939781 L28.5555556,26 L15.2222222,26 C14.4597379,26 13.9777698,25.1808883 14.3480649,24.5143571 L14.3480649,24.5143571 L16.2597198,21.0740148 C13.6858423,19.7127034 12,17.0174337 12,14 C12,9.581722 15.581722,6 20,6 Z M21.889,15.059 L18.7147909,20.7767059 C18.7058313,20.8337044 18.6917967,20.8907109 18.6724177,20.947175 C18.6124483,21.1219068 18.5088965,21.2693108 18.3780779,21.3814092 L16.921,24 L26.856,24 L21.889,15.059 Z M42,13 L26,13 L26,18.341 L27.477,21 L42,21 L42,13 Z M20,8 C16.6862915,8 14,10.6862915 14,14 C14,16.277279 15.2804161,18.3101669 17.2307804,19.324896 L21.0147316,12.5143571 C21.3957368,11.8285476 22.3820409,11.8285476 22.7630462,12.5143571 L22.7630462,12.5143571 L24,14.74 L24,12 C24,11.4871642 24.3860402,11.0644928 24.8833789,11.0067277 L25,11 L25.1982494,10.999711 C24.1485555,9.18272541 22.1887876,8 20,8 Z M47.584,2 L6.415,2 L7.415,3 L46.584,3 L47.584,2 Z" id="Combined-Shape"></path>
                </g>
                <g id="Group-Copy" transform="translate(3.000000, 39.000000)"></g>
                <g id="Group-Copy-2" transform="translate(49.000000, 39.000000)"></g>
            </g>
        </g>
    </g>
</svg>