<?xml version="1.0" encoding="UTF-8"?>
<svg width="60px" height="60px" viewBox="0 0 60 60" version="1.1" xmlns="http://www.w3.org/2000/svg" xmlns:xlink="http://www.w3.org/1999/xlink">
    <title>24E8FDD7-A859-44F1-AEF1-9C6FF610D464</title>
    <g id="Design-System" stroke="none" stroke-width="1" fill="none" fill-rule="evenodd">
        <g id="DS_Cross_01.07-Icone" transform="translate(-660.000000, -2162.000000)">
            <g id="illustrazioni/BW/ristoranti" transform="translate(660.000000, 2162.000000)">
                <g id="Group-3" transform="translate(5.000000, 6.000000)">
                    <g id="Group-2" fill="#000000" fill-rule="nonzero">
                        <g id="Group-4">
                            <path d="M23.5882353,0 C24.1010711,0 24.5237425,0.38604019 24.5815076,0.883378875 L24.5882353,1 L24.5888293,4.29660815 C35.2654875,4.80735299 43.8280786,13.4483479 44.3297054,24.2127521 L46.1764706,24.2121212 C46.7287553,24.2121212 47.1764706,24.6598365 47.1764706,25.2121212 C47.1764706,27.0329835 46.5330223,28.6964145 45.4813001,29.9099779 L49,29.9090909 C49.5522847,29.9090909 50,30.3568062 50,30.9090909 C50,31.4219267 49.6139598,31.8445981 49.1166211,31.9023632 L49,31.9090909 L45.1423306,31.9090909 C44.2730661,31.9090909 43.5324967,32.5208852 43.357552,33.3583406 L43.3326399,33.5083908 L41.9146909,44.9522411 C41.9054739,45.0266288 41.9008523,45.101514 41.9008523,45.1764706 C41.9008523,46.1332227 42.6376731,46.9178811 43.5748239,46.9939551 L43.7243817,47 L49,47 C49.5522847,47 50,47.4477153 50,48 C50,48.5128358 49.6139598,48.9355072 49.1166211,48.9932723 L49,49 L43.7243817,49 C41.6127047,49 39.9008523,47.2881476 39.9008523,45.1764706 L39.9081133,44.940944 L39.9298688,44.7063119 L40.0577689,43.6759663 C38.8392842,45.1857845 36.9735978,46.1515152 34.8823529,46.1515152 L23.9388069,46.1515152 C23.6235291,46.1515152 23.3094616,46.1125203 23.0037568,46.0354186 L6.40250725,41.8484242 C5.94922078,41.734101 5.63562539,41.3209879 5.64705538,40.8536546 L5.65388249,40.5948057 L5.6759153,40.2864078 L5.70273031,40.0608183 C6.1533599,36.7732278 9.11071126,34.425285 12.4156317,34.7586981 L19.8540588,35.5095152 L19.8637386,35.4521888 C20.101428,34.083535 20.754597,32.8574203 21.6885766,31.9085137 L5.91048593,31.9090909 C2.61090802,31.9090909 0,28.8800091 0,25.2121212 C0,24.6992854 0.38604019,24.2766141 0.883378875,24.2188489 L1,24.2121212 L2.84676655,24.212722 C3.34842358,13.4479962 11.911527,4.80681368 22.5886399,4.2965604 L22.5882353,1 C22.5882353,0.44771525 23.0359505,0 23.5882353,0 Z M34.8823529,31.9090909 L26.4616756,31.9090909 C24.1276439,31.9090909 22.1912381,33.6115297 21.8264747,35.8423909 L26.5330588,37.0305152 L32.3458681,37.030303 L32.4624892,37.0370308 C32.9598279,37.0947959 33.3458681,37.5174672 33.3458681,38.030303 C33.3458681,38.5825878 32.8981528,39.030303 32.3458681,39.030303 L32.3458681,39.030303 L26.4117647,39.030303 L26.28855,39.0226831 L26.1672131,38.9999393 L20.596,37.594 L12.214883,36.7485975 L12.0082349,36.7328562 C9.94938114,36.6268743 8.13236417,38.0532112 7.72941211,40.0544821 L7.71805882,40.1185152 L23.4928599,44.096146 C23.6386576,44.1329176 23.7884436,44.1515152 23.9388069,44.1515152 L34.8823529,44.1515152 C37.4488527,44.1515152 39.5294118,42.070956 39.5294118,39.5044563 L39.5294118,36.5561497 C39.5294118,33.98965 37.4488527,31.9090909 34.8823529,31.9090909 Z M41.7964527,31.8808738 L41.7016786,31.8913506 L41.4849152,31.9046296 L41.2659847,31.9090909 L39.6350855,31.909112 C40.3363559,32.6262319 40.8766482,33.5014267 41.197522,34.476256 L41.3478177,33.2624617 C41.4095841,32.7639633 41.5655213,32.2977849 41.7964527,31.8808738 Z M45.086,26.212 L2.089,26.212 L2.11132121,26.3291282 C2.50377524,28.257996 3.8886065,29.6983809 5.53952929,29.8878805 L5.72402328,29.9037496 L5.91048593,29.9090909 L41.2659847,29.9090909 C43.014801,29.9090909 44.5353082,28.5030966 45.0174964,26.5413979 L45.0651494,26.3291282 L45.086,26.212 Z M23.5882353,6.27272727 C13.5589468,6.27272727 5.36436336,14.2153529 4.84922924,24.212217 L42.3272413,24.212217 C41.8121072,14.2153529 33.6175238,6.27272727 23.5882353,6.27272727 Z M18.9048071,11.7341682 C19.1257019,12.2403539 18.894428,12.829769 18.3882423,13.0506638 C16.463791,13.8904768 14.7639976,15.1889238 13.4350341,16.8267219 C13.0870431,17.2555817 12.4572811,17.3211388 12.0284213,16.9731478 C11.5995615,16.6251568 11.5340044,15.9953948 11.8819954,15.5665351 C13.4116892,13.6813594 15.36933,12.1859466 17.5883115,11.2176034 C18.0944972,10.9967086 18.6839123,11.2279825 18.9048071,11.7341682 Z" id="Combined-Shape"></path>
                        </g>
                    </g>
                    <g id="Group" transform="translate(23.588234, 38.030303) scale(1, -1) translate(-23.588234, -38.030303) translate(5.647055, 29.909091)"></g>
                </g>
            </g>
        </g>
    </g>
</svg>