<?xml version="1.0" encoding="UTF-8"?>
<svg width="60px" height="60px" viewBox="0 0 60 60" version="1.1" xmlns="http://www.w3.org/2000/svg" xmlns:xlink="http://www.w3.org/1999/xlink">
    <title>78F4546A-4A91-46FB-8E29-81524EF69E39</title>
    <g id="Design-System" stroke="none" stroke-width="1" fill="none" fill-rule="evenodd">
        <g id="DS_Cross_01.07-Icone" transform="translate(-1080.000000, -2232.000000)" fill="#000000" fill-rule="nonzero">
            <g id="illustrazioni/BW/piscina" transform="translate(1080.000000, 2232.000000)">
                <g id="Group" transform="translate(4.999781, 5.593485)">
                    <path d="M41.5002191,20.9065148 C45.3675038,20.9065148 48.5002191,17.7737996 48.5002191,13.9065148 C48.5002191,10.0392301 45.3675038,6.90651482 41.5002191,6.90651482 C37.6329343,6.90651482 34.5002191,10.0392301 34.5002191,13.9065148 C34.5002191,17.7737996 37.6329343,20.9065148 41.5002191,20.9065148 Z M41.5002191,18.9065148 C38.7375038,18.9065148 36.5002191,16.6692301 36.5002191,13.9065148 C36.5002191,11.1437996 38.7375038,8.90651482 41.5002191,8.90651482 C44.2629343,8.90651482 46.5002191,11.1437996 46.5002191,13.9065148 C46.5002191,16.6692301 44.2629343,18.9065148 41.5002191,18.9065148 Z M12.4067339,0 C10.5253677,0 9.00021906,1.52514863 9.00021906,3.40651482 C9.00021906,5.6285161 10.4220657,7.60122291 12.5300412,8.30388142 L17.3639963,9.9151998 C17.9221078,10.1012369 18.3700046,10.5235612 18.5884942,11.069785 L20.0903864,14.8245156 C20.4643553,15.7594379 20.0849447,16.8265972 19.2047189,17.3156116 L8.01457613,23.5323575 C7.41856544,23.8634746 7.32140563,24.6808616 7.82318801,25.1424693 C11.1293338,28.183912 15.7099448,29.4239056 20.0988549,28.4655519 L32.3294643,25.7949001 C32.5321753,25.7506365 32.7285875,25.6813095 32.9141698,25.5885183 C34.1491161,24.9710452 34.6496769,23.4693626 34.0322038,22.2344163 L26.3103906,6.7907899 C24.9637027,4.09741403 22.4750015,2.15429486 19.5354233,1.50105526 L13.1457107,0.0811191324 C12.903082,0.02720165 12.6552812,0 12.4067339,0 Z M12.4067339,2 C12.5093565,2 12.6116709,2.01123128 12.7118498,2.03349325 L19.1015623,3.45342938 C21.4532249,3.97602106 23.4441859,5.5305164 24.5215362,7.68521709 L32.2433494,23.1288435 C32.366844,23.3758328 32.2667319,23.6761693 32.0197426,23.7996639 C31.9826262,23.8182221 31.9433437,23.8320876 31.9028015,23.8409403 L19.6721921,26.5115921 L19.330662,26.5809088 C16.253455,27.1583317 13.0919624,26.4844923 10.532727,24.7452411 L10.2742191,24.5645148 L20.1760048,19.0639261 C21.9364563,18.0858975 22.6952776,15.9515788 21.9473398,14.0817343 L20.4454476,10.3270037 C20.0084685,9.23455596 19.1126747,8.38990749 17.9964519,8.0178332 L13.1624967,6.40651482 C11.8712055,5.97608441 11.0002191,4.76765528 11.0002191,3.40651482 C11.0002191,2.62971813 11.6299372,2 12.4067339,2 Z M24.6490956,32.4701856 C32.4032611,29.5623736 41.0008218,29.9473342 48.4554554,33.5208121 L48.9104166,33.7435796 L49.4474327,34.0120876 C49.9414111,34.2590769 50.1416355,34.8597499 49.8946462,35.3537284 C49.6652991,35.8124227 49.1309899,36.017829 48.6603233,35.8470791 L48.5530055,35.800942 L48.0159894,35.532434 C41.1053232,32.0771009 33.0919568,31.5907063 25.8242474,34.1702642 L25.3513425,34.342844 C17.597177,37.2506561 8.99961631,36.8656955 1.54498275,33.2922175 L1.09002156,33.0694501 L0.553005461,32.800942 C0.0590269636,32.5539528 -0.141197383,31.9532797 0.105791866,31.4593012 C0.335139025,31.0006069 0.869448229,30.7952006 1.34011481,30.9659505 L1.44743265,31.0120876 L1.98444875,31.2805957 C8.89511491,34.7359288 16.9084814,35.2223234 24.1761907,32.6427655 L24.6490956,32.4701856 Z M24.6490956,41.4701856 C32.4032611,38.5623736 41.0008218,38.9473342 48.4554554,42.5208121 L48.9104166,42.7435796 L49.4474327,43.0120876 C49.9414111,43.2590769 50.1416355,43.8597499 49.8946462,44.3537284 C49.6652991,44.8124227 49.1309899,45.017829 48.6603233,44.8470791 L48.5530055,44.800942 L48.0159894,44.532434 C41.1053232,41.0771009 33.0919568,40.5907063 25.8242474,43.1702642 L25.3513425,43.342844 C17.597177,46.2506561 8.99961631,45.8656955 1.54498275,42.2922175 L1.09002156,42.0694501 L0.553005461,41.800942 C0.0590269636,41.5539528 -0.141197383,40.9532797 0.105791866,40.4593012 C0.335139025,40.0006069 0.869448229,39.7952006 1.34011481,39.9659505 L1.44743265,40.0120876 L1.98444875,40.2805957 C8.89511491,43.7359288 16.9084814,44.2223234 24.1761907,41.6427655 L24.6490956,41.4701856 Z" id="Combined-Shape"></path>
                </g>
            </g>
        </g>
    </g>
</svg>