<?xml version="1.0" encoding="UTF-8"?>
<svg width="60px" height="60px" viewBox="0 0 60 60" version="1.1" xmlns="http://www.w3.org/2000/svg" xmlns:xlink="http://www.w3.org/1999/xlink" >
    <title>BB1EB220-ACF1-4350-AA5C-05F61B57764B</title>
    <g id="Design-System" stroke="none" stroke-width="1" fill="none" fill-rule="evenodd" >
        <g id="DS_Cross_01.07-Icone" transform="translate(-590.000000, -2092.000000)">
            <g id="illustrazioni/BW/parco" transform="translate(590.000000, 2092.000000)">
                <path d="M29.4443269,28.1040986 L29.5608481,28.1720813 L35.5608481,32.2365974 C36.018095,32.5463453 36.1376666,33.1681174 35.8279187,33.6253643 C35.5402957,34.0499507 34.9836313,34.1833782 34.5394779,33.9522715 L34.4391519,33.8924348 L30,30.8840685 L30,32.5340685 L35.5608481,36.3011136 C36.018095,36.6108614 36.1376666,37.2326335 35.8279187,37.6898804 C35.5402957,38.1144668 34.9836313,38.2478943 34.5394779,38.0167877 L34.4391519,37.9569509 L30,34.9490685 L30,36.5990685 L35.5608481,40.3656297 C36.018095,40.6753776 36.1376666,41.2971497 35.8279187,41.7543965 C35.5402957,42.1789829 34.9836313,42.3124105 34.5394779,42.0813038 L34.4391519,42.0214671 L30,39.0130685 L30,40.6630685 L35.5608481,44.4301458 C36.018095,44.7398937 36.1376666,45.3616658 35.8279187,45.8189127 C35.5402957,46.243499 34.9836313,46.3769266 34.5394779,46.1458199 L34.4391519,46.0859832 L30,43.0780685 L30,50 C30,50.5522847 29.5522847,51 29,51 C28.4871642,51 28.0644928,50.6139598 28.0067277,50.1166211 L28,50 L28,43.0770685 L23.5608481,46.0859832 C23.1362618,46.3736062 22.5698144,46.2910508 22.2430581,45.9116922 L22.1720813,45.8189127 C21.8844583,45.3943263 21.9670137,44.8278789 22.3463723,44.5011226 L22.4391519,44.4301458 L28,40.6620685 L28,39.0130685 L23.5608481,42.0214671 C23.1362618,42.3090901 22.5698144,42.2265346 22.2430581,41.8471761 L22.1720813,41.7543965 C21.8844583,41.3298102 21.9670137,40.7633627 22.3463723,40.4366065 L22.4391519,40.3656297 L28,36.5980685 L28,34.9480685 L23.5608481,37.9569509 C23.1362618,38.244574 22.5698144,38.1620185 22.2430581,37.78266 L22.1720813,37.6898804 C21.8844583,37.265294 21.9670137,36.6988466 22.3463723,36.3720903 L22.4391519,36.3011136 L28,32.5330685 L28,30.8840685 L23.5608481,33.8924348 C23.1362618,34.1800578 22.5698144,34.0975024 22.2430581,33.7181438 L22.1720813,33.6253643 C21.8844583,33.2007779 21.9670137,32.6343305 22.3463723,32.3075742 L22.4391519,32.2365974 L28.4391519,28.1720813 C28.7402183,27.9681331 29.1247195,27.9454722 29.4443269,28.1040986 Z M54.5991784,32.2318095 L55.1786513,33.3660074 L55.3169023,33.6419283 C55.8533878,34.7162151 56.3899245,35.8309692 56.8913994,36.9294666 L57.095909,37.381019 L57.4836594,38.2595193 L57.6345511,38.6106442 L57.9177222,39.2867094 L58.1755295,39.9276124 C58.2979827,40.2392235 58.4106782,40.5375366 58.5132463,40.8223835 L58.7047702,41.3740726 L58.8686311,41.8895527 C59.1183152,42.7183459 59.25,43.3950223 59.25,43.9133514 C59.25,47.0263756 56.7716544,49.5878378 53.7134146,49.5878378 C52.2617211,49.5878378 50.8973477,49.0070812 49.871782,47.9920424 C49.4792484,47.6035378 49.4759821,46.9703813 49.8644866,46.5778476 C50.2529912,46.185314 50.8861477,46.1820477 51.2786814,46.5705522 C51.9358773,47.2210024 52.797685,47.5878378 53.7134146,47.5878378 C55.6520526,47.5878378 57.25,45.9362998 57.25,43.9133514 C57.25,43.6501256 57.1783749,43.2641811 57.0424665,42.7746386 L56.9285968,42.3883559 C56.9076479,42.3208376 56.8857232,42.2517753 56.8628372,42.1812063 L56.7140986,41.7400108 L56.5429746,41.2644474 L56.3501533,40.7563088 C56.3162466,40.669004 56.2814645,40.5804166 56.2458213,40.4905839 L56.0217448,39.9369434 L55.7776917,39.3552091 L55.4635143,38.6316256 L55.0720152,37.7600334 C54.7447465,37.0431403 54.4015566,36.3177895 54.0530446,35.6013302 L53.7125122,34.9112703 L53.3424198,35.6665627 L52.888964,36.6129083 C52.6528308,37.1121673 52.0566777,37.3254729 51.5574187,37.0893398 C51.0581597,36.8532066 50.844854,36.2570534 51.0809872,35.7577944 C51.3882766,35.108089 51.698358,34.4700418 52.0024125,33.8579128 L52.5971822,32.6780379 L52.8276744,32.2317647 C53.2020868,31.5173193 54.2248021,31.5173451 54.5991784,32.2318095 Z M12,34 C14.7612847,34 17,36.2387153 17,39 L17,39 L16.997,39.1 L17.0589296,39.1123673 C19.2433968,39.5834612 20.8971582,41.4819901 20.9953802,43.7831208 L20.9953802,43.7831208 L21,44 C21,46.7612847 18.7612847,49 16,49 L16,49 L8,49 C5.23871525,49 3,46.7612847 3,44 C3,41.6020422 4.68833858,39.5981828 6.94107037,39.1123673 L6.94107037,39.1123673 L7.003,39.1 L7,39 C7,36.3113806 9.12243849,34.118189 11.7831208,34.0046198 L11.7831208,34.0046198 Z M45.4518305,26.4353067 L45.520381,26.5455507 L45.9188346,27.2973495 L46.4156712,28.2544086 C47.085266,29.5570124 47.7549158,30.9086591 48.3806638,32.2402845 C48.639944,32.7920466 48.8867377,33.330081 49.1192269,33.851569 L49.2024739,34.0389299 L49.2024739,34.0389299 L49.2842541,34.2242754 L49.5965287,34.945393 L49.8846246,35.6338204 L50.1479746,36.2892019 L50.3860115,36.9111819 L50.5981681,37.4994048 C51.0625655,38.8322651 51.3109756,39.8865377 51.3109756,40.6418919 C51.3109756,44.3102899 48.3158338,47.3175676 44.6402439,47.3175676 C40.964654,47.3175676 37.9695122,44.3102899 37.9695122,40.6418919 C37.9695122,39.9446418 38.1811752,38.9926921 38.5789999,37.8020334 L38.6823197,37.4994048 L38.8944763,36.9111819 L38.9515814,36.7588378 L38.9515814,36.7588378 L39.0102952,36.6043893 L39.2610595,35.9656641 L39.5368533,35.2937152 L39.8371095,34.5888983 L40.1612609,33.851569 C40.3937501,33.330081 40.6405438,32.7920466 40.899824,32.2402845 C41.369135,31.2415655 41.8631408,30.2315844 42.363297,29.2394779 L42.8648166,28.2544086 L43.2031513,27.6005602 L43.7601068,26.5455507 C44.1168807,25.8840864 45.0329163,25.8473384 45.4518305,26.4353067 Z M12,36 C10.3432847,36 9,37.3432847 9,39 C9,39.2295392 9.03697683,39.4720426 9.11292068,39.7599228 C9.28456163,40.4105617 8.77755578,41.0416104 8.10521763,41.0141681 L8.10521763,41.0141681 L7.9718997,41.0024765 L7.82374106,41.0050932 C6.30737113,41.0929689 5.09296886,42.3073711 5.00509321,43.8237411 L5.00509321,43.8237411 L5,44 C5,45.6567153 6.34328475,47 8,47 L8,47 L16,47 C17.6567153,47 19,45.6567153 19,44 C19,42.3432847 17.6567153,41 16,41 L16.032,41.0000685 L15.9853596,41.0076314 L15.893968,41.014201 C15.2219483,41.0410817 14.7155253,40.4102322 14.8870793,39.7599228 C14.9630232,39.4720426 15,39.2295392 15,39 C15,37.3432847 13.6567153,36 12,36 Z M44.6405122,29.1752703 L44.1496633,30.1388702 C43.6571646,31.1157755 43.1709755,32.1097525 42.7099321,33.0908777 L42.5840737,33.359762 L42.5840737,33.359762 L42.460357,33.626209 L41.9879509,34.6659421 L41.9150544,34.8300012 L41.9150544,34.8300012 L41.843341,34.9925008 L41.5685025,35.6264633 L41.31333,36.2337102 L41.0784125,36.8128305 L41.0229169,36.9530504 L41.0229169,36.9530504 L40.9687333,37.0914022 L40.7653025,37.625687 L40.583599,38.1283177 L40.4242117,38.5978832 L40.3879209,38.7099428 L40.3879209,38.7099428 L40.3530708,38.8198256 L40.2282623,39.2371478 L40.1272425,39.6178773 C40.0234918,40.0401673 39.9695122,40.3848664 39.9695122,40.6418919 C39.9695122,43.2075268 42.0710379,45.3175676 44.6402439,45.3175676 C47.2094499,45.3175676 49.3109756,43.2075268 49.3109756,40.6418919 C49.3109756,40.4656459 49.2855942,40.2481753 49.2361882,39.9927312 L49.1946504,39.7940789 L49.1057458,39.4321748 L48.992758,39.0329726 L48.8562761,38.5978832 L48.8185536,38.4836688 L48.8185536,38.4836688 L48.7794088,38.3673218 L48.6087898,37.8810473 L48.5626711,37.7543674 L48.5626711,37.7543674 L48.5151853,37.625687 L48.3117545,37.0914022 L48.0871852,36.5268743 L47.8420666,35.9335143 L47.5769875,35.3127333 L47.2925369,34.6659421 C47.0656665,34.1570575 46.8243792,33.6310278 46.5705557,33.0908777 C45.9558312,31.7827108 45.2964032,30.4516962 44.6405122,29.1752703 Z M30.7428169,10.7007688 C30.9022705,10.9388026 31.0546896,11.1698165 31.2003272,11.3940751 L31.531,11.9110685 L32.057817,11.4065181 L32.41922,11.0705852 L32.9487098,10.594754 L33.2821527,10.3073368 L33.5910426,10.0526357 C33.9341207,9.77752664 34.2114731,9.5847411 34.3685103,9.52862757 C35.2612534,9.20962681 38.5457216,10.3420996 39.2647189,11.2645606 L39.3570214,11.390744 L39.4939081,11.6049613 L39.5721158,11.7389635 L39.7565998,12.0767342 L40.1291173,12.805745 L41.9968175,16.6247042 L42.4378112,17.5053966 L42.7019004,18.0106581 L42.8094774,18.206458 L42.8939453,18.3533741 L42.932,18.4170685 L43.0295538,18.3241827 L43.3856507,17.994527 L43.7563925,17.6619611 C43.8189604,17.6067085 43.8818064,17.5516477 43.9447645,17.4969354 L44.3225289,17.1740953 C44.3852709,17.121403 44.4477929,17.0693723 44.5099288,17.0181598 L44.8767821,16.7219546 L45.2263981,16.4529 C45.733909,16.0734385 46.1563436,15.8109739 46.3726492,15.7796428 C47.232555,15.6550882 50.1693982,17.7886635 50.5574174,18.7259271 L50.602295,18.854556 L50.6763587,18.9944731 L50.8837683,19.344111 L51.1767583,19.8140519 L51.7635981,20.7197587 L52.1198225,21.249745 L52.4378923,21.7044621 C52.4698638,21.7488291 52.5005038,21.7908145 52.5296041,21.8300891 L52.6840614,22.0305722 C52.7061692,22.0576864 52.7263206,22.0814312 52.7443073,22.1014774 C53.1131436,22.5125469 53.0789069,23.1447856 52.6678373,23.513622 C52.2567678,23.8824583 51.6245291,23.8482216 51.2556927,23.437152 C51.101497,23.2653002 50.8762909,22.9664321 50.6216843,22.604051 L50.304707,22.1427715 L49.9754831,21.6449047 L49.6499908,21.1348358 L49.4936371,20.882846 L49.4936371,20.882846 L49.2037009,20.4001964 L48.9574415,19.9663078 C48.8844098,19.8325145 48.8213206,19.7109123 48.7708368,19.6055654 L48.726,19.508 L48.6260381,19.4056553 L48.4784886,19.2701552 C48.3371608,19.1449504 48.1638449,19.0019598 47.9730275,18.8526334 L47.5723497,18.5489254 C47.296384,18.3460702 47.0232173,18.1577501 46.789526,18.0089139 L46.599,17.892 L46.4946724,17.9725472 L46.1841192,18.2213701 C46.128178,18.2672414 46.070305,18.3151772 46.010739,18.3649738 L45.6349398,18.6844534 L45.2504117,19.0207136 L44.7074556,19.5096417 L44.210821,19.9724574 L44.0303107,20.1473877 C44.1542007,20.34009 44.2784885,20.5325216 44.4031331,20.7245216 L45.1333909,21.8375672 L45.4958339,22.3800364 L46.1173127,23.2890401 L46.3968622,23.6863947 L46.7733672,24.2051007 L46.9938372,24.496299 L47.1882909,24.7413689 L47.355366,24.9382155 C47.3808545,24.9668882 47.4051456,24.9934644 47.4282107,25.0179004 C47.8073068,25.4195277 47.7890417,26.0524292 47.3874143,26.4315254 C46.985787,26.8106215 46.3528855,26.7923564 45.9737893,26.390729 C45.8806768,26.2920825 45.7773995,26.1737079 45.6642608,26.03632 L45.4249247,25.7364049 L45.1598305,25.387058 L44.8695174,24.9895498 L44.5545246,24.5451506 L44.0369402,23.7934106 L43.4668591,22.9433122 C42.97047,22.1951756 42.4795962,21.4376142 41.9958709,20.6789769 L41.2322583,19.4710231 L41.0397017,19.139615 L40.8698071,18.8261641 L40.5199144,18.146134 L39.9548815,17.0045835 L38.2951381,13.6133537 L37.9601025,12.959989 L37.778962,12.6335505 L37.7062521,12.5197353 C37.6995099,12.5101961 37.693193,12.5016536 37.6872811,12.4940688 C37.671462,12.473773 37.6296202,12.4430713 37.56617,12.4047813 L37.4117664,12.3189188 L37.207588,12.2178307 L36.9614823,12.1065266 C36.9174067,12.0874029 36.8719111,12.0680623 36.8251591,12.0486091 L36.5308766,11.931374 L36.2142857,11.8164468 C35.8399917,11.6873916 35.4652561,11.5794085 35.1689151,11.5138939 L34.959,11.472 L34.6299218,11.7594408 L34.0129693,12.3241854 L33.4667159,12.8366658 L32.7339738,13.5407774 L32.587,13.6850685 L32.6386354,13.7778795 C32.7817784,14.039561 32.9119376,14.2884267 33.0299661,14.5253703 L33.2501018,14.9836263 L33.3273059,15.1557252 L33.4810865,15.5225157 L33.6852006,16.0487297 L33.79,16.338 L34.0060685,16.4932341 L34.5910537,16.9335248 L35.9882137,18.0226735 C36.4210068,18.3657604 36.4937281,18.9947354 36.1506412,19.4275284 C35.8075543,19.8603215 35.1785793,19.9330428 34.7457863,19.5899559 L33.8565551,18.8927848 L33.0314714,18.2609876 L32.6630517,17.9899047 L32.5090137,17.8853084 C32.2995153,17.7587796 32.1604823,17.597261 32.0573226,17.4032162 L32.0014921,17.2853781 L31.825002,16.7882903 L31.634699,16.2936782 L31.5330042,16.0461473 L31.4342713,15.8219337 L31.2333531,15.4041428 C31.1972487,15.331792 31.1598142,15.2580608 31.1210179,15.1829181 L30.8716437,14.714872 C30.8054343,14.5941327 30.7360514,14.470111 30.6633896,14.3427031 C30.643707,14.3286489 30.6264189,14.3134163 30.6095395,14.2974818 C30.4479476,14.1449358 30.3484244,13.9513029 30.3118797,13.7481826 L30.2687527,13.6711397 C30.1561921,13.484724 30.0374229,13.2919113 29.9121915,13.0924514 L29.5168568,12.4738803 L29.0812265,11.8139254 C27.95397,10.1314301 27.2436982,9.82183407 26.031574,10.0847815 L25.7305582,10.158472 L25.153,10.31 L25.0456393,10.4217241 L24.7688973,10.7234923 L24.2981918,11.2620011 L22.1202847,13.8540505 L21.8204517,14.2026188 L21.5746086,14.4769931 L21.4874832,14.5984017 L21.3743009,14.7755532 L21.236756,15.0055781 L20.9884644,15.4434759 L20.6948864,15.9841974 L20.1169917,17.0938761 L18.9870273,19.3105944 L18.842024,19.5769753 L18.7674982,19.6999911 L18.7022167,19.7930898 L18.6389194,19.8680486 L18.4177024,20.0904814 L18.2092071,20.314644 L17.9527434,20.5997235 L17.3274438,21.3149971 L16.604869,22.16103 L15.6609338,23.287779 L14.786721,24.3542109 L14.3469007,24.9039592 L14.1054052,25.2133098 C14.0650275,25.2657618 14.0195921,25.3140099 13.9698004,25.3573792 L13.7359658,25.5357005 L13.5458288,25.6894517 L13.1953483,25.9896215 L12.7648814,26.3741409 L12.0632817,27.0197907 L10.0158436,28.9370138 L9.728,29.195 L9.55451488,29.445871 L7.81905576,32.0318773 L7.25048597,32.8623021 L6.8923158,33.3684205 L6.80340727,33.4897446 C6.47456042,33.9334542 5.84827969,34.0265688 5.40457011,33.697722 C4.96086052,33.3688751 4.86774588,32.7425944 5.19659273,32.2988848 L5.49539335,31.8821916 L6.13715602,30.9473724 L8.02785463,28.1385179 L8.19946398,27.8996105 L8.33691035,27.7551728 L8.57716555,27.5420747 L10.9148274,25.3568633 L11.463834,24.8537458 L11.9290999,24.43974 L12.196711,24.2104003 L12.4330387,24.0164022 L12.607,23.881 L12.792679,23.6449126 L13.320343,22.986584 L13.9309629,22.2406055 L14.8086941,21.1880581 L15.6767721,20.1679327 L16.2674823,19.4888244 L16.7643769,18.9338406 L17.0248143,18.6552195 L17.11,18.567 L17.2285579,18.3534798 L18.586106,15.6976637 L18.8536699,15.1858281 L19.2104437,14.5227464 L19.42121,14.1476031 L19.6124152,13.8236927 L19.7858641,13.5490474 C19.895979,13.3819348 19.9954593,13.2463535 20.0867113,13.1396796 L20.4130389,12.7731497 L23.0114933,9.68031066 L23.4183214,9.21154052 L23.6575767,8.94969939 L23.7917745,8.81208859 L23.9094976,8.70044025 L24.0139774,8.61167079 L24.1084453,8.54269664 L24.1529345,8.51466918 L24.2384433,8.46960628 L24.3220186,8.43662975 L24.4068917,8.412656 L24.5437035,8.3868303 L24.6872777,8.36409512 L25.2107645,8.22719919 C27.3907928,7.64045402 29.0132227,8.11925004 30.7428169,10.7007688 Z M33.1429015,21.9700315 L33.2909568,22.1868911 L33.4095946,22.3480812 L33.6326872,22.634649 L34.0463907,23.142033 L35.1238235,24.4383729 L35.4962984,24.9013245 L35.7001338,25.1661597 L35.8713081,25.4013992 L36.0123273,25.6117092 C36.2658815,26.0105102 36.353542,26.2877301 36.3655279,26.6113467 L36.365001,26.8161527 L36.3271275,27.1676942 C36.1998327,28.2350441 36.5957251,29.0682432 38.7560433,30.5946012 C39.2071018,30.9132934 39.3144058,31.5372996 38.9957135,31.988358 C38.6770213,32.4394165 38.0530151,32.5467205 37.6019567,32.2280282 C34.948681,30.3533746 34.175684,28.8501661 34.3227452,27.1115672 L34.3574013,26.7847563 L34.3063635,26.6958008 L34.1952779,26.5228026 L34.0474394,26.3136409 L33.8373372,26.0353703 L33.4780426,25.5868996 L32.2694561,24.1302774 L31.904,23.6725724 L31.695479,23.3946352 L31.5199134,23.1419786 C31.501462,23.1142859 31.4832334,23.0865492 31.4650985,23.0585979 C31.1644991,22.5952854 31.2964043,21.9760125 31.7597168,21.6754132 C32.2230293,21.3748138 32.8423022,21.506719 33.1429015,21.9700315 Z M26.0056235,14.9903015 C26.4071418,15.3695133 26.4252249,16.00242 26.0460132,16.4039382 L25.5893378,16.8948895 L25.4283708,17.0843858 L25.2853179,17.2736052 L25.2321589,17.347722 C24.6367825,18.183745 24.2595745,19.2179576 24.1627121,20.639025 L24.1462695,20.9495295 C24.0910525,22.3933875 23.8014489,23.7009113 23.3515148,24.8546678 C23.0776457,25.5569443 22.7972496,26.0812176 22.5766672,26.4146686 L22.535,26.473 L20.428931,30.2623646 C20.1796672,30.7105478 19.6368553,30.8922986 19.1741389,30.7010499 L19.0689501,30.6502457 C18.6207669,30.4009819 18.4390161,29.85817 18.6302648,29.3954536 L18.681069,29.2902648 L20.810069,25.4622648 L20.8711178,25.3658866 C21.0088773,25.1736186 21.2444026,24.7531562 21.4881888,24.1280205 C21.8187267,23.2804293 22.0461468,22.3252945 22.1251498,21.2724693 L22.1477305,20.8730999 C22.223256,18.8982005 22.7404655,17.3987824 23.6030503,16.1875473 C23.775175,15.9458512 23.955073,15.7235678 24.1545735,15.4996998 L24.3925998,15.2405412 L24.5919868,15.0306912 C24.9711986,14.6291729 25.6041053,14.6110898 26.0056235,14.9903015 Z" id="Combined-Shape" fill="#000000" fill-rule="nonzero"></path>
                <g id="Group-2" transform="translate(37.969512, 26.020270)"></g>
                <g id="Group" transform="translate(21.999900, 28.000000)"></g>
            </g>
        </g>
    </g>
</svg>